HIERARCHY
ROOT hips
{
	OFFSET -0.003675 0.299928 -0.021708
	CHANNELS 6 Xposition Yposition Zposition Xrotation Yrotation Zrotation
	JOINT LowerBack
	{
		OFFSET 0.000919 0.177588 0.009275
		CHANNELS 3 Xrotation Yrotation Zrotation
		JOINT spine
		{
			OFFSET 0.000919 0.177588 0.009275
			CHANNELS 3 Xrotation Yrotation Zrotation
			JOINT chest
			{
				OFFSET 0.000456 0.100015 0.004638
				CHANNELS 3 Xrotation Yrotation Zrotation
				JOINT neck
				{
					OFFSET 0.000456 0.100015 0.004638
					CHANNELS 3 Xrotation Yrotation Zrotation
					JOINT head
					{
						OFFSET 0.000924 0.155147 0.009274
						CHANNELS 6 Xposition Yposition Zposition Xrotation Yrotation Zrotation
						End Site
						{
							OFFSET 0.000000 0.153400 0.000000
						}
					}
				}
				JOINT shoulder.L
				{
					OFFSET 0.019937 0.078966 0.057518
					CHANNELS 6 Xposition Yposition Zposition Yrotation Xrotation Zrotation
					JOINT upper_arm.L
					{
						OFFSET 0.177024 -0.020465 -0.095062
						CHANNELS 6 Xposition Yposition Zposition Xrotation Yrotation Zrotation
						JOINT forearm.L
						{
							OFFSET 0.247100 -0.135500 -0.061800
							CHANNELS 3 Xrotation Yrotation Zrotation
							JOINT hand.L
							{
								OFFSET 0.217000 -0.143000 0.039300
								CHANNELS 3 Xrotation Yrotation Zrotation
								JOINT palm.01.L
								{
									OFFSET 0.021770 -0.038291 0.012954
									CHANNELS 6 Xposition Yposition Zposition Yrotation Xrotation Zrotation
									JOINT f_index.01.L
									{
										OFFSET 0.053215 -0.044137 0.008236
										CHANNELS 3 Xrotation Yrotation Zrotation
										JOINT f_index.02.L
										{
											OFFSET 0.036108 -0.024723 -0.010656
											CHANNELS 3 Xrotation Yrotation Zrotation
											JOINT f_index.03.L
											{
												OFFSET 0.021342 -0.014948 -0.010846
												CHANNELS 3 Xrotation Yrotation Zrotation
												End Site
												{
													OFFSET 0.015600 -0.009860 -0.013421
												}
											}
										}
									}
									JOINT thumb.01.L
									{
										OFFSET -0.009090 -0.002348 -0.024223
										CHANNELS 6 Xposition Yposition Zposition Xrotation Yrotation Zrotation
										JOINT thumb.02.L
										{
											OFFSET 0.019713 -0.035076 -0.011120
											CHANNELS 3 Xrotation Yrotation Zrotation
											JOINT thumb.03.L
											{
												OFFSET 0.024877 -0.021748 -0.005176
												CHANNELS 3 Xrotation Yrotation Zrotation
												End Site
												{
													OFFSET 0.016125 -0.013029 -0.001569
												}
											}
										}
									}
								}
								JOINT palm.02.L
								{
									OFFSET 0.032823 -0.025104 0.012281
									CHANNELS 6 Xposition Yposition Zposition Yrotation Xrotation Zrotation
									JOINT f_middle.01.L
									{
										OFFSET 0.055723 -0.038469 0.008037
										CHANNELS 3 Xrotation Yrotation Zrotation
										JOINT f_middle.02.L
										{
											OFFSET 0.038167 -0.027473 -0.015582
											CHANNELS 3 Xrotation Yrotation Zrotation
											JOINT f_middle.03.L
											{
												OFFSET 0.021707 -0.016587 -0.017037
												CHANNELS 3 Xrotation Yrotation Zrotation
												End Site
												{
													OFFSET 0.014112 -0.010584 -0.014294
												}
											}
										}
									}
								}
								JOINT palm.03.L
								{
									OFFSET 0.039230 -0.011402 0.008390
									CHANNELS 6 Xposition Yposition Zposition Yrotation Xrotation Zrotation
									JOINT f_ring.01.L
									{
										OFFSET 0.061796 -0.031470 0.007910
										CHANNELS 3 Xrotation Yrotation Zrotation
										JOINT f_ring.02.L
										{
											OFFSET 0.033092 -0.023401 -0.019127
											CHANNELS 3 Xrotation Yrotation Zrotation
											JOINT f_ring.03.L
											{
												OFFSET 0.021392 -0.015362 -0.017824
												CHANNELS 3 Xrotation Yrotation Zrotation
												End Site
												{
													OFFSET 0.008670 -0.007297 -0.014686
												}
											}
										}
									}
								}
								JOINT palm.04.L
								{
									OFFSET 0.043417 0.002450 0.002889
									CHANNELS 6 Xposition Yposition Zposition Yrotation Xrotation Zrotation
									JOINT f_pinky.01.L
									{
										OFFSET 0.069986 -0.026156 0.003627
										CHANNELS 3 Xrotation Yrotation Zrotation
										JOINT f_pinky.02.L
										{
											OFFSET 0.018520 -0.012813 -0.016429
											CHANNELS 3 Xrotation Yrotation Zrotation
											JOINT f_pinky.03.L
											{
												OFFSET 0.013822 -0.009796 -0.014947
												CHANNELS 3 Xrotation Yrotation Zrotation
												End Site
												{
													OFFSET 0.007238 -0.006103 -0.011657
												}
											}
										}
									}
								}
							}
						}
					}
				}
				JOINT shoulder.R
				{
					OFFSET -0.016662 0.078957 0.057696
					CHANNELS 6 Xposition Yposition Zposition Yrotation Xrotation Zrotation
					JOINT upper_arm.R
					{
						OFFSET -0.176972 -0.020537 -0.095144
						CHANNELS 6 Xposition Yposition Zposition Xrotation Yrotation Zrotation
						JOINT forearm.R
						{
							OFFSET -0.247100 -0.135500 -0.061800
							CHANNELS 3 Xrotation Yrotation Zrotation
							JOINT hand.R
							{
								OFFSET -0.217000 -0.143000 0.039300
								CHANNELS 3 Xrotation Yrotation Zrotation
								JOINT palm.01.R
								{
									OFFSET -0.021773 -0.038278 0.012988
									CHANNELS 6 Xposition Yposition Zposition Yrotation Xrotation Zrotation
									JOINT f_index.01.R
									{
										OFFSET -0.053212 -0.044139 0.008249
										CHANNELS 3 Xrotation Yrotation Zrotation
										JOINT f_index.02.R
										{
											OFFSET -0.036049 -0.024835 -0.010634
											CHANNELS 3 Xrotation Yrotation Zrotation
											JOINT f_index.03.R
											{
												OFFSET -0.021371 -0.014881 -0.010866
												CHANNELS 3 Xrotation Yrotation Zrotation
												End Site
												{
													OFFSET -0.015584 -0.009883 -0.013422
												}
											}
										}
									}
									JOINT thumb.01.R
									{
										OFFSET 0.009113 -0.002381 -0.024211
										CHANNELS 6 Xposition Yposition Zposition Xrotation Yrotation Zrotation
										JOINT thumb.02.R
										{
											OFFSET -0.019694 -0.035097 -0.011088
											CHANNELS 3 Xrotation Yrotation Zrotation
											JOINT thumb.03.R
											{
												OFFSET -0.024867 -0.021762 -0.005168
												CHANNELS 3 Xrotation Yrotation Zrotation
												End Site
												{
													OFFSET -0.016120 -0.013036 -0.001565
												}
											}
										}
									}
								}
								JOINT palm.02.R
								{
									OFFSET -0.032828 -0.025095 0.012286
									CHANNELS 6 Xposition Yposition Zposition Yrotation Xrotation Zrotation
									JOINT f_middle.01.R
									{
										OFFSET -0.055721 -0.038472 0.008040
										CHANNELS 3 Xrotation Yrotation Zrotation
										JOINT f_middle.02.R
										{
											OFFSET -0.038101 -0.027593 -0.015557
											CHANNELS 3 Xrotation Yrotation Zrotation
											JOINT f_middle.03.R
											{
												OFFSET -0.021730 -0.016530 -0.017054
												CHANNELS 3 Xrotation Yrotation Zrotation
												End Site
												{
													OFFSET -0.014096 -0.010608 -0.014293
												}
											}
										}
									}
								}
								JOINT palm.03.R
								{
									OFFSET -0.039192 -0.011488 0.008390
									CHANNELS 6 Xposition Yposition Zposition Yrotation Xrotation Zrotation
									JOINT f_ring.01.R
									{
										OFFSET -0.061839 -0.031387 0.007876
										CHANNELS 3 Xrotation Yrotation Zrotation
										JOINT f_ring.02.R
										{
											OFFSET -0.033068 -0.023437 -0.019125
											CHANNELS 3 Xrotation Yrotation Zrotation
											JOINT f_ring.03.R
											{
												OFFSET -0.021371 -0.015393 -0.017822
												CHANNELS 3 Xrotation Yrotation Zrotation
												End Site
												{
													OFFSET -0.008654 -0.007321 -0.014684
												}
											}
										}
									}
								}
								JOINT palm.04.R
								{
									OFFSET -0.043421 0.002443 0.002845
									CHANNELS 6 Xposition Yposition Zposition Yrotation Xrotation Zrotation
									JOINT f_pinky.01.R
									{
										OFFSET -0.069983 -0.026169 0.003599
										CHANNELS 3 Xrotation Yrotation Zrotation
										JOINT f_pinky.02.R
										{
											OFFSET -0.018501 -0.012842 -0.016428
											CHANNELS 3 Xrotation Yrotation Zrotation
											JOINT f_pinky.03.R
											{
												OFFSET -0.013806 -0.009821 -0.014946
												CHANNELS 3 Xrotation Yrotation Zrotation
												End Site
												{
													OFFSET -0.007226 -0.006121 -0.011655
												}
											}
										}
									}
								}
							}
						}
					}
				}
			}
		}
	}
	JOINT pelvis.L
	{
		OFFSET 0.000000 0.000000 0.000000
		CHANNELS 6 Xposition Yposition Zposition Xrotation Yrotation Zrotation
		JOINT thigh.L
		{
			OFFSET 0.101675 0.001054 -0.000000
			CHANNELS 3 Xrotation Yrotation Zrotation
			JOINT shin.L
			{
				OFFSET 0.000000 -0.534800 0.041000
				CHANNELS 3 Xrotation Yrotation Zrotation
				JOINT foot.L
				{
					OFFSET 0.000000 -0.452000 -0.044800
					CHANNELS 3 Xrotation Yrotation Zrotation
					JOINT toe.L
					{
						OFFSET -0.000000 -0.068500 0.109600
						CHANNELS 3 Xrotation Yrotation Zrotation
						End Site
						{
							OFFSET -0.000000 0.000000 0.067200
						}
					}
				}
				JOINT heel.L
				{
					OFFSET 0.000000 -0.452000 -0.044800
					CHANNELS 3 Xrotation Yrotation Zrotation
					JOINT heel.02.L
					{
						OFFSET -0.038000 -0.085200 0.016200
						CHANNELS 6 Xposition Yposition Zposition Xrotation Yrotation Zrotation
						End Site
						{
							OFFSET 0.080000 -0.000000 0.000000
						}
					}
				}
			}
		}
	}
	JOINT pelvis.R
	{
		OFFSET 0.000000 0.000000 0.000000
		CHANNELS 6 Xposition Yposition Zposition Xrotation Yrotation Zrotation
		JOINT thigh.R
		{
			OFFSET -0.094325 0.001054 0.000000
			CHANNELS 3 Xrotation Yrotation Zrotation
			JOINT shin.R
			{
				OFFSET 0.000000 -0.534800 0.041000
				CHANNELS 3 Xrotation Yrotation Zrotation
				JOINT foot.R
				{
					OFFSET 0.000000 -0.452000 -0.044800
					CHANNELS 3 Xrotation Yrotation Zrotation
					JOINT toe.R
					{
						OFFSET -0.000000 -0.068500 0.109600
						CHANNELS 3 Xrotation Yrotation Zrotation
						End Site
						{
							OFFSET -0.000000 0.000000 0.067200
						}
					}
				}
				JOINT heel.R
				{
					OFFSET 0.000000 -0.452000 -0.044800
					CHANNELS 3 Xrotation Yrotation Zrotation
					JOINT heel.02.R
					{
						OFFSET 0.038000 -0.085200 0.016200
						CHANNELS 6 Xposition Yposition Zposition Xrotation Yrotation Zrotation
						End Site
						{
							OFFSET -0.080000 0.000000 -0.000000
						}
					}
				}
			}
		}
	}
}
MOTION
Frames: 4
Frame Time: 0.041667
-0.003675 0.299928 -0.021708 0.000000 -0.000000 0.000000 -0.000001 0.000000 0.000000 -0.000000 0.000000 0.000000 -0.000000 0.000000 0.000000 -0.000000 -0.000000 -0.000000 0.000924 0.155147 0.009274 -0.000001 -0.000000 -0.000000 0.019937 0.078966 0.057518 0.000001 0.000001 -0.000005 0.177024 -0.020465 -0.095062 -0.000006 -0.000003 0.000015 -0.000009 -0.000004 -0.000009 -0.000000 0.000000 0.000001 0.021770 -0.038291 0.012954 0.000001 -0.000001 0.000001 -0.000001 -0.000001 -0.000002 -0.000001 -0.000000 0.000007 -0.000000 0.000000 0.000003 -0.009090 -0.002348 -0.024224 -0.000002 0.000001 0.000001 0.000001 -0.000001 0.000001 -0.000000 0.000000 -0.000001 0.032823 -0.025104 0.012281 0.000000 -0.000000 0.000000 0.000001 0.000004 -0.000003 -0.000001 -0.000000 -0.000000 -0.000001 -0.000003 0.000003 0.039230 -0.011402 0.008390 -0.000000 -0.000000 0.000008 0.000001 0.000001 -0.000000 -0.000001 0.000003 -0.000001 0.000002 0.000002 -0.000000 0.043417 0.002450 0.002889 -0.000000 0.000001 0.000002 -0.000001 -0.000003 0.000001 -0.000000 0.000003 -0.000000 -0.000000 -0.000003 0.000001 -0.016662 0.078956 0.057696 -0.000001 0.000002 0.000011 -0.176972 -0.020537 -0.095144 0.000001 -0.000003 -0.000005 -0.000006 0.000005 -0.000014 -0.000001 -0.000000 0.000000 -0.021773 -0.038278 0.012988 0.000000 -0.000001 -0.000003 -0.000001 0.000001 -0.000003 -0.000001 -0.000000 0.000001 0.000001 0.000002 0.000007 0.009113 -0.002381 -0.024211 0.000002 -0.000001 0.000004 -0.000000 0.000001 0.000002 0.000000 0.000000 -0.000003 -0.032828 -0.025095 0.012286 0.000001 -0.000001 -0.000001 -0.000001 0.000003 -0.000003 -0.000002 0.000004 -0.000001 0.000001 -0.000002 -0.000000 -0.039192 -0.011488 0.008390 0.000000 0.000000 0.000001 -0.000000 0.000003 -0.000003 -0.000001 0.000001 0.000002 -0.000001 0.000000 -0.000003 -0.043421 0.002443 0.002844 -0.000000 -0.000001 0.000000 -0.000007 0.000003 -0.000002 -0.000003 -0.000000 -0.000000 0.000001 -0.000000 0.000001 -0.000000 0.000000 -0.000000 -0.000001 -0.000000 0.000001 0.000009 -0.000202 0.000014 -0.000026 0.000202 -0.000015 0.000000 -0.000000 -0.000000 0.000002 -0.000000 -0.000000 0.000000 0.000000 -0.000000 -0.038000 -0.085200 0.016200 0.000000 0.000000 0.000000 0.000000 -0.000000 -0.000000 -0.000001 0.000000 -0.000004 0.000008 -0.000013 0.000005 -0.000012 0.000013 -0.000001 -0.000003 -0.000000 -0.000000 0.000000 -0.000000 -0.000000 0.000002 -0.000000 -0.000000 0.038000 -0.085200 0.016200 0.000002 -0.000000 0.000000 
-0.002577 0.286628 -0.018733 -77.744075 85.537478 76.563374 -0.000000 0.000000 0.000000 -0.000000 -0.000000 0.000000 -0.000000 -0.000000 -0.000000 0.000000 -0.000000 -0.000000 0.000924 0.155147 0.009274 2.324333 0.000560 2.003452 0.019937 0.078966 0.057518 -8.025569 4.436115 29.081907 0.177024 -0.020465 -0.095062 -17.005323 12.937682 -63.976975 -26.906159 -11.117935 -47.712392 -0.000002 -0.000002 0.000002 0.021770 -0.038291 0.012954 -0.000001 0.000001 -0.000002 -0.000001 0.000003 -0.000000 0.000001 -0.000002 0.000003 -0.000002 0.000001 -0.000000 -0.009090 -0.002348 -0.024223 -0.000001 0.000000 -0.000001 -0.000000 0.000002 -0.000000 -0.000001 -0.000001 -0.000001 0.032823 -0.025104 0.012281 -0.000003 0.000005 0.000007 -0.000001 -0.000000 -0.000002 0.000000 0.000002 0.000007 0.000003 0.000002 -0.000000 0.039230 -0.011402 0.008390 -0.000002 0.000001 0.000003 0.000001 0.000005 -0.000002 -0.000001 0.000001 0.000003 0.000001 -0.000002 0.000003 0.043417 0.002450 0.002889 -0.000001 0.000003 -0.000000 -0.000002 -0.000008 0.000002 -0.000000 0.000003 0.000001 -0.000001 0.000001 -0.000002 -0.016662 0.078957 0.057696 -6.676295 6.930266 -31.766086 -0.176972 -0.020537 -0.095144 -20.262603 -10.086952 59.067544 -20.342458 12.966417 35.404825 0.000002 0.000002 0.000005 -0.021773 -0.038278 0.012988 0.000002 -0.000003 -0.000002 0.000002 -0.000002 0.000004 -0.000002 -0.000001 -0.000006 0.000001 0.000003 0.000002 0.009114 -0.002381 -0.024212 0.000001 -0.000006 0.000000 0.000005 -0.000003 0.000002 0.000002 0.000003 -0.000003 -0.032828 -0.025095 0.012286 0.000004 -0.000002 -0.000001 -0.000000 0.000000 -0.000001 -0.000003 0.000001 -0.000005 -0.000001 0.000006 0.000002 -0.039192 -0.011488 0.008390 0.000003 -0.000003 0.000001 0.000002 -0.000003 -0.000003 -0.000000 0.000001 -0.000002 0.000003 -0.000000 0.000000 -0.043421 0.002443 0.002844 0.000004 -0.000001 -0.000001 -0.000003 0.000003 0.000001 0.000000 -0.000006 0.000002 -0.000001 0.000000 0.000004 0.000000 0.000000 -0.000000 -1.244708 -0.184958 1.451149 13.042272 -0.264985 -3.888277 8.833196 -0.262354 2.650050 -0.000003 -0.000000 0.000000 -0.000004 0.000000 -0.000000 0.000000 -0.000000 0.000000 -0.038000 -0.085200 0.016200 -0.000000 0.000000 -0.000000 0.000000 0.000000 -0.000000 -1.223036 -0.184180 2.685403 -9.821572 0.720482 8.472547 4.136972 0.313537 -3.164522 0.000002 -0.000000 0.000001 0.000001 0.000000 -0.000000 0.000005 0.000001 0.000001 0.038000 -0.085200 0.016200 -0.000000 -0.000000 0.000000 
-0.002837 0.287843 -0.018556 -80.628785 85.693589 79.524528 -0.000001 0.000000 0.000000 -0.000001 0.000000 0.000000 -0.000000 0.000000 -0.000000 0.000000 0.000000 -0.000000 0.000924 0.155147 0.009274 1.778023 0.001635 1.505487 0.019937 0.078966 0.057518 -7.371311 4.578821 29.047975 0.177025 -0.020465 -0.095062 -15.584291 12.729838 -63.844599 -28.603345 -11.174273 -48.233515 0.000001 -0.000004 0.000000 0.021770 -0.038291 0.012954 -0.000001 0.000002 -0.000004 -0.000001 -0.000003 0.000001 0.000001 -0.000005 0.000009 -0.000000 0.000000 -0.000001 -0.009090 -0.002348 -0.024223 0.000003 -0.000003 0.000003 -0.000003 0.000004 0.000005 -0.000002 0.000002 0.000003 0.032823 -0.025104 0.012281 -0.000002 0.000001 0.000007 0.000001 0.000009 -0.000001 -0.000000 0.000001 0.000003 0.000003 0.000002 0.000004 0.039230 -0.011402 0.008390 0.000001 -0.000000 0.000006 0.000000 0.000006 -0.000002 -0.000000 0.000006 0.000001 0.000003 -0.000003 0.000005 0.043417 0.002450 0.002889 -0.000004 -0.000000 -0.000002 -0.000004 -0.000002 -0.000004 0.000000 0.000001 -0.000000 -0.000002 -0.000002 -0.000000 -0.016662 0.078957 0.057696 -6.613477 7.044643 -31.853229 -0.176972 -0.020537 -0.095144 -19.079094 -10.083033 59.387819 -22.699034 13.381197 36.836662 0.000002 0.000003 0.000001 -0.021773 -0.038278 0.012988 -0.000004 0.000000 0.000005 -0.000002 0.000004 0.000001 -0.000001 -0.000004 -0.000005 -0.000000 0.000002 0.000005 0.009114 -0.002381 -0.024211 -0.000003 0.000002 0.000001 0.000001 -0.000003 0.000002 0.000003 -0.000003 -0.000001 -0.032828 -0.025095 0.012286 -0.000004 0.000004 -0.000001 0.000001 0.000002 0.000004 -0.000001 0.000000 -0.000004 -0.000003 0.000006 -0.000003 -0.039192 -0.011488 0.008390 -0.000002 0.000001 0.000005 -0.000003 0.000004 -0.000002 0.000002 -0.000003 -0.000002 0.000001 0.000000 -0.000003 -0.043421 0.002442 0.002845 -0.000001 0.000000 0.000000 0.000001 0.000002 -0.000001 -0.000002 -0.000004 -0.000000 0.000001 0.000003 -0.000000 -0.000000 -0.000000 -0.000000 -1.226015 -0.195494 1.603003 12.762557 -0.264018 -3.858759 8.812327 -0.267500 2.702023 -0.000003 -0.000000 -0.000000 -0.000004 0.000000 -0.000000 0.000003 -0.000000 0.000000 -0.038000 -0.085200 0.016200 -0.000002 -0.000000 -0.000000 0.000000 0.000000 -0.000000 -1.205002 -0.194690 2.837273 -10.377766 0.720008 8.434544 4.498593 0.313059 -3.159675 0.000000 -0.000000 -0.000000 0.000001 -0.000000 0.000001 0.000002 -0.000000 -0.000000 0.038000 -0.085200 0.016200 -0.000004 0.000000 -0.000001 
-0.002824 0.288327 -0.018555 -102.440612 85.718239 101.211929 0.000000 -0.000000 0.000000 0.000000 -0.000000 0.000000 -0.000000 -0.000000 0.000000 0.000000 -0.000000 0.000000 0.000924 0.155147 0.009274 1.212083 0.002701 1.393004 0.019937 0.078966 0.057518 -6.952055 4.841013 29.446626 0.177024 -0.020465 -0.095062 -14.837322 12.498908 -63.164264 -30.666901 -11.593349 -47.657211 -0.000001 -0.000003 -0.000002 0.021770 -0.038291 0.012954 -0.000002 -0.000000 -0.000001 -0.000003 -0.000000 -0.000000 0.000001 -0.000001 0.000007 0.000002 0.000005 -0.000002 -0.009090 -0.002348 -0.024224 0.000002 0.000003 0.000001 -0.000001 -0.000001 0.000003 0.000004 0.000000 -0.000002 0.032823 -0.025104 0.012281 -0.000004 0.000000 0.000004 -0.000003 0.000003 -0.000005 -0.000004 -0.000003 0.000003 -0.000002 0.000003 0.000001 0.039230 -0.011402 0.008390 -0.000001 -0.000000 0.000006 0.000001 -0.000000 0.000003 -0.000001 0.000006 0.000001 -0.000001 0.000003 0.000004 0.043417 0.002450 0.002889 -0.000005 -0.000003 -0.000002 -0.000000 -0.000008 -0.000002 -0.000001 -0.000001 -0.000001 -0.000003 -0.000003 -0.000001 -0.016662 0.078957 0.057696 -7.239519 7.305947 -32.153116 -0.176972 -0.020537 -0.095144 -17.613840 -10.026755 59.486815 -23.904243 13.701058 36.899824 -0.000002 -0.000000 0.000002 -0.021773 -0.038278 0.012988 -0.000001 0.000000 -0.000007 -0.000000 -0.000002 0.000000 -0.000001 -0.000000 -0.000001 -0.000001 0.000000 0.000001 0.009113 -0.002381 -0.024211 0.000002 -0.000007 0.000005 0.000001 -0.000001 0.000000 0.000004 -0.000003 -0.000003 -0.032828 -0.025095 0.012286 0.000001 0.000001 -0.000003 0.000000 0.000003 0.000001 0.000002 -0.000002 -0.000006 -0.000002 0.000003 -0.000002 -0.039192 -0.011488 0.008390 -0.000002 0.000001 -0.000000 0.000002 0.000000 -0.000005 0.000004 -0.000004 -0.000000 -0.000002 -0.000004 -0.000001 -0.043421 0.002443 0.002845 -0.000001 0.000000 -0.000001 -0.000003 0.000004 0.000001 0.000002 -0.000005 0.000002 0.000001 0.000000 0.000003 -0.000000 -0.000000 -0.000000 -1.209271 -0.196134 1.620468 12.593387 -0.271260 -3.942585 8.519984 -0.266037 2.687243 0.000003 -0.000000 -0.000000 0.000002 -0.000000 -0.000000 -0.000002 -0.000000 -0.000000 -0.038000 -0.085200 0.016200 -0.000002 0.000000 0.000000 0.000000 0.000000 -0.000000 -1.188608 -0.195333 2.854724 -10.565982 0.728651 8.540809 4.419869 0.342110 -3.453286 -0.000003 0.000001 -0.000000 -0.000001 0.000000 -0.000001 0.000002 0.000001 -0.000000 0.038000 -0.085200 0.016200 -0.000002 0.000000 -0.000001 
